<?xml version="1.0" encoding="UTF-8"?><svg xmlns="http://www.w3.org/2000/svg" xmlns:xlink="http://www.w3.org/1999/xlink" version="1.1" id="Layer_1" x="0px" y="0px" viewBox="0 0 24 24" xml:space="preserve"><path fill="#F47920" d="M21 12.341V8l-5 2.857V8l-5 2.857V8l-3.938 2.25L6 1H2L.302 15.783S0 18.59 0 20h16.245c.55 1.744 2.016 3 3.755 3 2.21 0 4-2.015 4-4.5 0-1.675-1.815-4.495-3-6.159z"/><g id="light_foil_4_" fill="#FFF"><path id="XMLID_1564_" opacity="0.2" d="M0 20c0-1.41.302-4.217.302-4.217L2 1h4l1.698 14.783S8 18.59 8 20H0z"/><path opacity="0.5" d="M11.5 13.5H14v2h-2.5z"/><path opacity="0.5" d="M7.436 13.5l.23 2H9v-2z"/><path opacity="0.5" d="M18.208 13.5H16.5v2h.514c.364-.688.783-1.374 1.194-2z"/><path opacity="0.5" d="M22.297 14.294C21.208 12.517 20 11 20 11v5.591l2.297-2.297z"/><path opacity="0.4" d="M20 11s-1.208 1.517-2.297 3.294L20 16.591V11z"/><path opacity="0.4" d="M20 20.591l3.65-3.65c-.32-.848-.821-1.777-1.353-2.647L20 16.591v4z"/><path opacity="0.3" d="M20 20.591V23c2.21 0 4-2.015 4-4.5 0-.451-.134-.987-.35-1.559L20 20.591z"/><path opacity="0.3" d="M20 16.591l-2.297-2.297c-.532.87-1.033 1.799-1.353 2.647l3.65 3.65v-4z"/><path opacity="0.2" d="M16.35 16.941c-.216.572-.35 1.108-.35 1.559 0 2.485 1.79 4.5 4 4.5v-2.409l-3.65-3.65z"/></g><metadata><rdf:RDF xmlns:rdf="http://www.w3.org/1999/02/22-rdf-syntax-ns#" xmlns:rdfs="http://www.w3.org/2000/01/rdf-schema#" xmlns:dc="http://purl.org/dc/elements/1.1/"><rdf:Description about="https://iconscout.com/legal#licenses" dc:title="eco,factory,bio" dc:description="eco,factory,bio" dc:publisher="Iconscout" dc:date="2017-10-16" dc:format="image/svg+xml" dc:language="en"><dc:creator><rdf:Bag><rdf:li>Those Icons</rdf:li></rdf:Bag></dc:creator></rdf:Description></rdf:RDF></metadata></svg>